<svg width="80.000000" height="80.000000" viewBox="0 0 80 80" fill="none" xmlns="http://www.w3.org/2000/svg" xmlns:xlink="http://www.w3.org/1999/xlink">
	<desc>
			Created with Pixso.
	</desc>
	<defs>
		<clipPath id="clip6_0">
			<rect id="ant-design:cloud-download-outline" width="80.000000" height="80.000000" fill="white" fill-opacity="0"/>
		</clipPath>
	</defs>
	<rect id="Frame 3" width="80.000000" height="80.000000" fill="#FFFFFF" fill-opacity="0"/>
	<rect id="ant-design:cloud-download-outline" width="80.000000" height="80.000000" fill="#FFFFFF" fill-opacity="0"/>
	<g clip-path="url(#clip6_0)">
		<path id="Vector" d="M48.75 55.17L42.96 55.17L42.96 36.25C42.96 35.9 42.67 35.62 42.33 35.62L37.64 35.62C37.3 35.62 37.02 35.9 37.02 36.25L37.02 55.17L31.25 55.17C30.72 55.17 30.43 55.78 30.75 56.18L39.5 67.25C39.56 67.33 39.64 67.39 39.72 67.43C39.81 67.47 39.9 67.49 40 67.49C40.09 67.49 40.18 67.47 40.27 67.43C40.35 67.39 40.43 67.33 40.49 67.25L49.24 56.18C49.56 55.78 49.27 55.17 48.75 55.17Z" fill="#ED4C5C" fill-opacity="1.000000" fill-rule="nonzero"/>
		<path id="Vector" d="M63.39 28.64C59.81 19.21 50.69 12.5 40.01 12.5C29.33 12.5 20.21 19.2 16.64 28.64C9.94 30.39 5 36.5 5 43.75C5 52.38 11.99 59.37 20.61 59.37L23.75 59.37C24.09 59.37 24.37 59.09 24.37 58.75L24.37 54.06C24.37 53.71 24.09 53.43 23.75 53.43L20.61 53.43C17.98 53.43 15.5 52.39 13.66 50.49C11.82 48.6 10.85 46.05 10.93 43.41C11 41.35 11.71 39.41 12.98 37.78C14.28 36.11 16.11 34.9 18.14 34.36L21.1 33.59L22.19 30.73C22.86 28.95 23.8 27.28 24.98 25.78C26.14 24.28 27.52 22.97 29.07 21.88C32.28 19.62 36.07 18.42 40.01 18.42C43.96 18.42 47.74 19.62 50.95 21.88C52.5 22.97 53.88 24.28 55.04 25.78C56.22 27.28 57.16 28.96 57.83 30.73L58.91 33.58L61.86 34.36C66.1 35.5 69.06 39.35 69.06 43.75C69.06 46.33 68.05 48.77 66.22 50.6C65.33 51.5 64.26 52.21 63.08 52.7C61.91 53.19 60.65 53.44 59.38 53.43L56.25 53.43C55.9 53.43 55.62 53.71 55.62 54.06L55.62 58.75C55.62 59.09 55.9 59.37 56.25 59.37L59.38 59.37C68 59.37 75 52.38 75 43.75C75 36.5 70.07 30.41 63.39 28.64Z" fill="#ED4C5C" fill-opacity="1.000000" fill-rule="nonzero"/>
	</g>
</svg>
