<svg width="66.000000" height="66.000000" viewBox="0 0 66 66" fill="none" xmlns="http://www.w3.org/2000/svg" xmlns:xlink="http://www.w3.org/1999/xlink">
	<desc>
			Created with Pixso.
	</desc>
	<defs>
		<clipPath id="clip6_16">
			<rect id="ant-design:security-scan-outline" width="66.000000" height="66.000000" fill="white" fill-opacity="0"/>
		</clipPath>
	</defs>
	<rect id="Frame 4" width="66.000000" height="66.000000" fill="#FFFFFF" fill-opacity="0"/>
	<rect id="ant-design:security-scan-outline" width="66.000000" height="66.000000" fill="#FFFFFF" fill-opacity="0"/>
	<g clip-path="url(#clip6_16)">
		<path id="Vector" d="M55.87 10.95L33.97 3.48C33.7 3.39 33.35 3.35 33 3.35C32.64 3.35 32.29 3.39 32.02 3.48L10.12 10.95C9.59 11.13 9.15 11.74 9.15 12.31L9.15 43.4C9.15 43.97 9.51 44.72 9.96 45.07L32.18 62.39C32.4 62.56 32.69 62.65 32.99 62.65C33.29 62.65 33.58 62.56 33.8 62.39L56.02 45.07C56.46 44.73 56.83 43.98 56.83 43.4L56.83 12.31C56.84 11.74 56.4 11.13 55.87 10.95ZM52.2 42.17L33 57.13L13.79 42.17L13.79 14.61L33 8.06L52.2 14.61L52.2 42.17ZM20.97 39.07L25.96 34.08C23.7 30.49 24.13 25.69 27.26 22.57C30.89 18.94 36.77 18.94 40.39 22.57C44.02 26.2 44.02 32.07 40.39 35.7C37.27 38.83 32.47 39.26 28.88 37L23.89 41.99C23.69 42.19 23.36 42.19 23.16 41.99L20.97 39.8C20.87 39.7 20.82 39.57 20.82 39.44C20.82 39.3 20.87 39.17 20.97 39.07ZM30.18 25.49C32.2 23.47 35.46 23.47 37.47 25.49C39.49 27.5 39.49 30.77 37.47 32.78C35.46 34.8 32.19 34.8 30.18 32.78C28.17 30.76 28.16 27.5 30.18 25.49Z" fill="#ED4C5C" fill-opacity="1.000000" fill-rule="evenodd"/>
	</g>
</svg>
