<svg width="70.000000" height="70.000000" viewBox="0 0 70 70" fill="none" xmlns="http://www.w3.org/2000/svg" xmlns:xlink="http://www.w3.org/1999/xlink">
	<desc>
			Created with Pixso.
	</desc>
	<defs>
		<clipPath id="clip6_11">
			<rect id="iwwa-file-pdf" width="70.000000" height="70.000000" fill="white" fill-opacity="0"/>
		</clipPath>
	</defs>
	<rect id="Frame 6" width="70.000000" height="70.000000" fill="#FFFFFF" fill-opacity="0"/>
	<rect id="iwwa-file-pdf" width="70.000000" height="70.000000" fill="#FFFFFF" fill-opacity="0"/>
	<g clip-path="url(#clip6_11)">
		<path id="Vector" d="M23.72 35.66C23.72 34.21 22.71 33.34 20.93 33.34C20.2 33.34 19.71 33.41 19.45 33.48L19.45 38.15C19.76 38.22 20.13 38.25 20.65 38.25C22.55 38.25 23.72 37.28 23.72 35.66Z" fill="#ED4C5C" fill-opacity="1.000000" fill-rule="nonzero"/>
		<path id="Vector" d="M34.75 33.39C33.95 33.39 33.43 33.46 33.13 33.53L33.13 43.88C33.43 43.95 33.93 43.95 34.37 43.95C37.61 43.97 39.72 42.19 39.72 38.41C39.75 35.13 37.82 33.39 34.75 33.39Z" fill="#ED4C5C" fill-opacity="1.000000" fill-rule="nonzero"/>
		<path id="Vector" d="M55.88 27.31L54.58 27.31L54.58 21.05C54.58 21.01 54.58 20.97 54.57 20.93C54.57 20.68 54.49 20.44 54.32 20.25L43.91 8.36L43.9 8.35C43.77 8.21 43.6 8.1 43.41 8.04L43.36 8.03C43.28 8.01 43.2 8 43.11 8L17.52 8C16.35 8 15.41 8.95 15.41 10.11L15.41 27.31L14.11 27.31C12.44 27.31 11.08 28.66 11.08 30.34L11.08 46.08C11.08 47.75 12.44 49.1 14.11 49.1L15.41 49.1L15.41 59.88C15.41 61.05 16.35 62 17.52 62L52.47 62C53.63 62 54.58 61.05 54.58 59.88L54.58 49.1L55.88 49.1C57.55 49.1 58.91 47.75 58.91 46.08L58.91 30.34C58.91 28.66 57.55 27.31 55.88 27.31ZM17.52 10.11L42.05 10.11L42.05 20.95C42.05 21.53 42.53 22.01 43.11 22.01L52.47 22.01L52.47 27.31L17.52 27.31L17.52 10.11ZM43.52 38.29C43.52 41.32 42.42 43.41 40.89 44.7C39.23 46.08 36.69 46.74 33.6 46.74C31.74 46.74 30.43 46.62 29.54 46.5L29.54 30.97C30.85 30.76 32.56 30.64 34.37 30.64C37.37 30.64 39.32 31.18 40.84 32.33C42.49 33.55 43.52 35.5 43.52 38.29ZM15.91 46.57L15.91 30.97C17.01 30.78 18.56 30.64 20.74 30.64C22.94 30.64 24.52 31.07 25.57 31.91C26.58 32.71 27.26 34.02 27.26 35.57C27.26 37.12 26.74 38.43 25.8 39.32C24.58 40.47 22.78 40.99 20.66 40.99C20.2 40.99 19.77 40.97 19.45 40.92L19.45 46.57L15.91 46.57ZM52.47 59.31L17.52 59.31L17.52 49.1L52.47 49.1L52.47 59.31ZM55.53 33.69L49.46 33.69L49.46 37.31L55.14 37.31L55.14 40.22L49.46 40.22L49.46 46.57L45.87 46.57L45.87 30.76L55.53 30.76L55.53 33.69Z" fill="#ED4C5C" fill-opacity="1.000000" fill-rule="nonzero"/>
	</g>
</svg>
