<svg width="47.000000" height="54.000000" viewBox="0 0 47 54" fill="none" xmlns="http://www.w3.org/2000/svg" xmlns:xlink="http://www.w3.org/1999/xlink">
	<desc>
			Created with Pixso.
	</desc>
	<defs>
		<clipPath id="clip6_9">
			<rect id="iwwa-file-csv" width="47.000000" height="54.000000" fill="white" fill-opacity="0"/>
		</clipPath>
	</defs>
	<rect id="Frame 5" width="47.000000" height="54.000000" fill="#FFFFFF" fill-opacity="0"/>
	<rect id="iwwa-file-csv" width="47.000000" height="54.000000" fill="#FFFFFF" fill-opacity="0"/>
	<g clip-path="url(#clip6_9)">
		<path id="Vector" d="M44.02 18.95L42.75 18.95L42.75 12.81C42.75 12.77 42.74 12.74 42.73 12.7C42.74 12.45 42.65 12.21 42.49 12.02L32.26 0.35L32.25 0.34C32.19 0.28 32.12 0.22 32.04 0.17L31.97 0.13C31.91 0.09 31.84 0.07 31.77 0.04L31.71 0.03C31.63 0.01 31.55 0 31.47 0L6.32 0C5.18 0 4.24 0.93 4.24 2.07L4.24 18.95L2.97 18.95C1.33 18.95 0 20.28 0 21.92L0 37.37C0 39.01 1.33 40.34 2.97 40.34L4.24 40.34L4.24 50.92C4.24 52.06 5.18 53 6.32 53L40.66 53C41.81 53 42.75 52.06 42.75 50.92L42.75 40.34L44.02 40.34C45.66 40.34 47 39.01 47 37.37L47 21.92C47 20.28 45.66 18.95 44.02 18.95ZM6.32 2.07L30.43 2.07L30.43 12.71C30.43 13.28 30.9 13.75 31.47 13.75L40.67 13.75L40.67 18.95L6.32 18.95L6.32 2.07ZM21.9 30.55C19.37 29.65 17.7 28.25 17.7 26.05C17.7 23.46 19.89 21.5 23.45 21.5C25.19 21.5 26.43 21.84 27.33 22.26L26.56 25.01C25.58 24.53 24.5 24.29 23.41 24.29C21.92 24.29 21.2 24.99 21.2 25.76C21.2 26.72 22.03 27.15 24.01 27.89C26.7 28.89 27.94 30.28 27.94 32.42C27.94 34.97 26 37.13 21.83 37.13C20.09 37.13 18.38 36.65 17.52 36.18L18.22 33.37C19.4 33.97 20.7 34.29 22.03 34.31C23.61 34.31 24.44 33.66 24.44 32.67C24.44 31.72 23.72 31.18 21.9 30.55ZM3.99 29.52C3.99 24.36 7.68 21.5 12.28 21.5C14.06 21.5 15.42 21.86 16.03 22.15L15.3 24.88C14.39 24.49 13.41 24.3 12.42 24.31C9.71 24.31 7.59 25.96 7.59 29.33C7.59 32.35 9.4 34.27 12.44 34.27C13.5 34.27 14.63 34.07 15.33 33.77L15.82 36.47C15.22 36.76 13.77 37.13 11.95 37.13C6.69 37.13 3.99 33.84 3.99 29.52ZM40.66 50.36L6.32 50.36L6.32 40.34L40.66 40.34L40.66 50.36ZM37.89 36.9L33.87 36.9L29 21.72L32.77 21.72L34.62 28.14C35.13 29.97 35.61 31.68 35.97 33.57L36.04 33.57C36.42 31.77 36.88 29.98 37.41 28.21L39.35 21.73L43 21.73L37.89 36.9Z" fill="#ED4C5C" fill-opacity="1.000000" fill-rule="nonzero"/>
	</g>
</svg>
