<svg width="172.000000" height="29.000000" viewBox="0 0 172 29" fill="none" xmlns="http://www.w3.org/2000/svg" xmlns:xlink="http://www.w3.org/1999/xlink">
	<desc>
			Created with Pixso.
	</desc>
	<defs>
		<clipPath id="clip6_336">
			<rect id="dashicons-cloud" width="29.000000" height="29.000000" fill="white" fill-opacity="0"/>
		</clipPath>
	</defs>
	<path id="Logo" d="M46.52 18.95Q46.45 18.93 46.38 18.93Q46.36 18.93 46.34 18.93Q46.25 18.94 46.17 18.98Q46.08 19.02 45.98 19.11Q45.69 19.38 45.39 19.56Q45.3 19.61 45.22 19.66Q44.99 19.78 44.74 19.86Q44.41 19.98 44.01 20.04Q43.61 20.09 43.11 20.09Q42.43 20.09 41.82 19.88Q41.69 19.83 41.57 19.78Q41.23 19.63 40.94 19.43Q40.6 19.2 40.31 18.88Q39.78 18.29 39.47 17.44Q39.16 16.59 39.16 15.49Q39.16 14.4 39.45 13.55Q39.74 12.7 40.26 12.11Q40.54 11.8 40.87 11.57Q41.16 11.36 41.51 11.21Q42.23 10.9 43.11 10.9Q43.62 10.9 44.01 10.98Q44.4 11.05 44.7 11.17Q45 11.28 45.22 11.41Q45.44 11.54 45.61 11.66Q45.79 11.77 45.93 11.85Q46.08 11.92 46.21 11.92Q46.41 11.92 46.52 11.84Q46.63 11.76 46.7 11.65L47.51 10.53Q46.74 9.77 45.64 9.31Q44.54 8.84 43.11 8.84Q41.68 8.84 40.5 9.33Q39.65 9.68 38.97 10.25Q38.71 10.46 38.47 10.7Q38.41 10.77 38.35 10.83Q37.59 11.67 37.16 12.8Q36.69 14.02 36.69 15.49Q36.69 16.94 37.12 18.16Q37.54 19.32 38.29 20.17Q38.33 20.22 38.38 20.27Q38.57 20.48 38.79 20.67Q39.47 21.27 40.35 21.64Q41.51 22.14 42.96 22.14Q44.58 22.14 45.74 21.62Q46.35 21.34 46.87 20.93Q47.32 20.57 47.68 20.11L46.73 19.08Q46.63 18.98 46.52 18.95ZM70.18 18.14Q70.65 16.92 70.65 15.49Q70.65 14.53 70.44 13.67Q70.23 12.81 69.82 12.07Q69.56 11.59 69.23 11.17Q69.04 10.94 68.84 10.73Q68.62 10.5 68.37 10.3Q67.98 9.97 67.53 9.72Q66.8 9.29 65.93 9.07Q65.06 8.84 64.07 8.84Q62.59 8.84 61.37 9.34Q60.4 9.74 59.65 10.39Q59.46 10.55 59.29 10.73Q59.15 10.87 59.03 11.02Q58.35 11.81 57.95 12.84Q57.47 14.06 57.47 15.49Q57.47 16.92 57.95 18.14Q58.34 19.15 59 19.93Q59.14 20.09 59.29 20.25Q59.44 20.4 59.59 20.54Q60.36 21.22 61.37 21.64Q62.59 22.14 64.07 22.14Q65.55 22.14 66.77 21.64Q67.82 21.2 68.61 20.48Q68.73 20.37 68.84 20.25Q69.02 20.07 69.17 19.88Q69.8 19.12 70.18 18.14ZM149.48 20.73L149.48 15.47L145.16 15.47L145.16 16.84Q145.16 16.95 145.2 17.04Q145.23 17.11 145.28 17.16Q145.3 17.17 145.31 17.18Q145.44 17.29 145.65 17.29L147.29 17.29L147.29 19.64Q146.75 19.91 146.18 20.06Q145.61 20.21 144.9 20.21Q143.89 20.21 143.07 19.89Q142.46 19.66 141.98 19.26Q141.82 19.12 141.67 18.97Q141.09 18.36 140.77 17.48Q140.45 16.6 140.45 15.49Q140.45 14.45 140.74 13.6Q141.04 12.75 141.59 12.15Q141.79 11.94 142.01 11.76Q142.42 11.43 142.92 11.22Q143.7 10.9 144.66 10.9Q145.25 10.9 145.71 10.98Q146.16 11.06 146.53 11.19Q146.89 11.31 147.19 11.48L147.78 11.83Q148.09 12.01 148.34 11.96Q148.35 11.96 148.35 11.96Q148.42 11.94 148.48 11.91Q148.65 11.83 148.77 11.64L149.47 10.54Q149.06 10.16 148.58 9.85Q148.09 9.53 147.5 9.31Q146.91 9.09 146.22 8.97Q145.53 8.84 144.74 8.84Q143.18 8.84 141.93 9.33Q140.8 9.76 139.98 10.52Q139.89 10.61 139.8 10.69Q139.67 10.82 139.56 10.96Q138.86 11.75 138.45 12.8Q137.98 14.02 137.98 15.49Q137.98 16.94 138.47 18.16Q138.82 19.03 139.39 19.73Q139.62 20.02 139.88 20.27Q140.79 21.15 142.08 21.64Q143.37 22.14 144.97 22.14Q146.25 22.14 147.37 21.8Q147.47 21.77 147.57 21.74Q148.58 21.4 149.48 20.73ZM56.97 22L56.97 20L51.77 20L51.77 8.98L49.35 8.98L49.35 22L56.97 22ZM79.28 19.81Q78.73 20.04 78.03 20.04Q77.32 20.04 76.77 19.81Q76.34 19.63 76.02 19.33Q75.92 19.25 75.83 19.15Q75.45 18.72 75.25 18.12Q75.05 17.51 75.05 16.77L75.05 8.98L72.63 8.98L72.63 16.77Q72.63 17.93 73 18.92Q73.31 19.73 73.83 20.36Q73.94 20.5 74.07 20.62Q74.11 20.66 74.15 20.7Q74.82 21.36 75.76 21.74Q76.77 22.14 78.03 22.14Q79.27 22.14 80.27 21.74Q81.25 21.35 81.93 20.66Q81.95 20.64 81.97 20.62Q82.11 20.48 82.23 20.33Q82.74 19.71 83.04 18.92Q83.41 17.93 83.41 16.77L83.41 8.98L81 8.98L81 16.77Q81 17.52 80.79 18.13Q80.59 18.73 80.21 19.15Q80.14 19.23 80.07 19.29Q79.74 19.62 79.28 19.81ZM97.23 18.12Q97.71 16.92 97.71 15.49Q97.71 14.06 97.23 12.86Q96.83 11.86 96.16 11.1Q96.03 10.95 95.89 10.81Q95.82 10.73 95.74 10.67Q94.92 9.91 93.81 9.47Q92.6 8.98 91.11 8.98L86.15 8.98L86.15 22L91.11 22Q92.6 22 93.81 21.52Q94.92 21.08 95.74 20.32Q95.82 20.25 95.89 20.18Q96.06 20 96.22 19.81Q96.85 19.07 97.23 18.12ZM106.51 9.22Q105.6 8.98 104.33 8.98L99.84 8.98L99.84 22L104.76 22Q105.89 22 106.77 21.71Q107.65 21.42 108.25 20.91Q108.64 20.59 108.91 20.18Q109.06 19.95 109.17 19.7Q109.21 19.62 109.24 19.53Q109.49 18.9 109.49 18.17Q109.49 17.28 109.09 16.65Q108.45 15.64 106.81 15.27Q107.41 15.06 107.85 14.77Q108.28 14.47 108.57 14.11Q108.83 13.77 108.97 13.38Q108.97 13.35 108.98 13.32L108.99 13.32Q109.12 12.9 109.12 12.45Q109.12 11.65 108.85 11.01Q108.77 10.82 108.66 10.64Q108.41 10.23 108 9.92Q107.42 9.47 106.51 9.22ZM118.19 19.81Q117.63 20.04 116.93 20.04Q116.23 20.04 115.68 19.81Q115.25 19.63 114.93 19.33Q114.83 19.25 114.74 19.15Q114.36 18.72 114.16 18.12Q113.95 17.51 113.95 16.77L113.95 8.98L111.53 8.98L111.53 16.77Q111.53 17.93 111.91 18.92Q112.21 19.73 112.74 20.36Q112.85 20.5 112.97 20.62Q113.01 20.66 113.05 20.7Q113.73 21.36 114.67 21.74Q115.67 22.14 116.93 22.14Q118.18 22.14 119.18 21.74Q120.15 21.35 120.84 20.66Q120.86 20.64 120.88 20.62Q121.01 20.48 121.14 20.33Q121.65 19.71 121.95 18.92Q122.32 17.93 122.32 16.77L122.32 8.98L119.9 8.98L119.9 16.77Q119.9 17.52 119.7 18.13Q119.5 18.73 119.12 19.15Q119.05 19.23 118.98 19.29Q118.64 19.62 118.19 19.81ZM136.13 18.12Q136.61 16.92 136.61 15.49Q136.61 14.06 136.13 12.86Q135.74 11.86 135.07 11.1Q134.94 10.95 134.79 10.81Q134.72 10.73 134.65 10.67Q133.83 9.91 132.72 9.47Q131.5 8.98 130.02 8.98L125.06 8.98L125.06 22L130.02 22Q131.5 22 132.72 21.52Q133.83 21.08 134.65 20.32Q134.72 20.25 134.79 20.18Q134.97 20 135.13 19.81Q135.76 19.07 136.13 18.12ZM154.25 14.52L154.25 10.91L160.03 10.91L160.03 8.98L151.82 8.98L151.82 22L160.03 22L160.03 20.06L154.25 20.06L154.25 16.38L158.8 16.38L158.8 14.52L154.25 14.52ZM167.33 10.97L171.26 10.97L171.26 8.98L160.99 8.98L160.99 10.97L164.91 10.97L164.91 22L167.33 22L167.33 10.97ZM102.26 14.62L102.26 10.85L104.33 10.85Q105.55 10.85 106.12 11.29Q106.19 11.33 106.25 11.39Q106.7 11.83 106.7 12.74Q106.7 13.48 106.33 13.92Q106.22 14.06 106.07 14.17Q105.43 14.62 104.19 14.62L102.26 14.62ZM67.89 13.57Q68.18 14.42 68.18 15.49Q68.18 16.56 67.89 17.41Q67.6 18.26 67.07 18.85Q66.91 19.03 66.72 19.19Q66.31 19.53 65.78 19.75Q65.02 20.07 64.07 20.07Q63.11 20.07 62.35 19.75Q61.84 19.54 61.43 19.2Q61.23 19.04 61.06 18.85Q60.52 18.26 60.23 17.41Q59.94 16.56 59.94 15.49Q59.94 14.42 60.23 13.57Q60.52 12.72 61.06 12.12Q61.26 11.9 61.5 11.71Q61.88 11.41 62.35 11.22Q63.11 10.9 64.07 10.9Q65.02 10.9 65.78 11.22Q66.26 11.41 66.65 11.72Q66.88 11.91 67.07 12.12Q67.6 12.72 67.89 13.57ZM94.94 13.57Q95.22 14.42 95.22 15.49Q95.22 16.56 94.94 17.41Q94.66 18.26 94.12 18.85Q93.95 19.04 93.75 19.2Q93.34 19.54 92.82 19.75Q92.06 20.07 91.11 20.07L88.58 20.07L88.58 10.91L91.11 10.91Q92.06 10.91 92.82 11.22Q93.31 11.42 93.7 11.74Q93.93 11.92 94.12 12.13Q94.66 12.72 94.94 13.57ZM133.85 13.57Q134.13 14.42 134.13 15.49Q134.13 16.56 133.85 17.41Q133.56 18.26 133.03 18.85Q132.85 19.04 132.66 19.2Q132.25 19.54 131.73 19.75Q130.97 20.07 130.02 20.07L127.49 20.07L127.49 10.91L130.02 10.91Q130.97 10.91 131.73 11.22Q132.22 11.42 132.61 11.74Q132.83 11.92 133.03 12.13Q133.56 12.72 133.85 13.57ZM105.84 19.94Q105.38 20.11 104.71 20.11L102.26 20.11L102.26 16.29L104.7 16.29Q105.34 16.29 105.79 16.42Q106.25 16.54 106.54 16.78Q106.72 16.93 106.83 17.11Q106.91 17.23 106.96 17.35Q107.09 17.69 107.09 18.11Q107.09 18.52 106.97 18.88Q106.92 19.02 106.85 19.15Q106.74 19.35 106.58 19.51Q106.3 19.78 105.84 19.94Z" fill="#FFFFFF" fill-opacity="1.000000" fill-rule="evenodd"/>
	<rect id="dashicons-cloud" width="29.000000" height="29.000000" fill="#FFFFFF" fill-opacity="0"/>
	<g clip-path="url(#clip6_336)">
		<path id="Vector" d="M21.6 13.05C21.6 12.61 21.75 12.18 21.75 11.6C21.75 8.4 19.14 5.79 15.95 5.79C13.63 5.79 11.74 7.1 10.73 8.98C10.44 8.84 9.85 8.69 9.42 8.69C7.39 8.69 5.79 10.29 5.79 12.32C5.79 12.61 5.79 12.9 5.94 13.05C3.33 13.48 1.45 15.51 1.45 18.12C1.45 20.88 3.77 23.2 6.52 23.2L21.02 23.2C23.78 23.2 26.1 20.88 26.1 18.12C26.1 15.51 24.21 13.34 21.6 13.05Z" fill="#FFFFFF" fill-opacity="1.000000" fill-rule="nonzero"/>
	</g>
</svg>
