<svg width="32.000000" height="32.000000" viewBox="0 0 32 32" fill="none" xmlns="http://www.w3.org/2000/svg" xmlns:xlink="http://www.w3.org/1999/xlink">
	<desc>
			Created with Pixso.
	</desc>
	<defs>
		<clipPath id="clip6_351">
			<rect id="ion-logo-apple-appstore" width="32.000000" height="32.000000" fill="white" fill-opacity="0"/>
		</clipPath>
	</defs>
	<rect id="ion-logo-apple-appstore" width="32.000000" height="32.000000" fill="#FFFFFF" fill-opacity="0"/>
	<g clip-path="url(#clip6_351)">
		<path id="Vector" d="M16 2C8.26 2 2 8.26 2 16C2 23.73 8.26 30 16 30C23.73 30 30 23.73 30 16C30 8.26 23.73 2 16 2ZM10.68 22.11C10.6 22.26 10.47 22.38 10.33 22.47C10.18 22.55 10.01 22.59 9.84 22.59C9.67 22.59 9.5 22.55 9.35 22.46C9.24 22.39 9.14 22.31 9.07 22.21C8.99 22.1 8.93 21.99 8.9 21.87C8.87 21.74 8.86 21.61 8.88 21.49C8.89 21.36 8.94 21.24 9 21.13L9.96 19.54C10 19.46 10.07 19.39 10.16 19.34C10.24 19.3 10.33 19.27 10.43 19.27L10.57 19.27C11.26 19.27 11.75 19.69 11.89 20.09L10.68 22.11ZM18.77 18.99L12.52 19L8.36 19C8.22 19 8.1 18.97 7.97 18.92C7.85 18.87 7.75 18.79 7.65 18.7C7.56 18.6 7.49 18.49 7.45 18.37C7.4 18.25 7.38 18.12 7.39 17.99C7.41 17.46 7.86 17.06 8.39 17.06L11.4 17.06L14.98 10.98L13.82 9.01C13.56 8.56 13.67 7.96 14.12 7.68C14.23 7.61 14.35 7.56 14.48 7.54C14.61 7.52 14.74 7.52 14.87 7.55C15 7.58 15.12 7.64 15.23 7.72C15.33 7.79 15.42 7.89 15.49 8.01L16.11 9.06L16.11 9.06L16.73 8.01C16.8 7.89 16.89 7.8 16.99 7.72C17.1 7.64 17.22 7.58 17.34 7.55C17.47 7.52 17.6 7.52 17.73 7.54C17.86 7.56 17.98 7.61 18.1 7.68C18.54 7.96 18.65 8.56 18.39 9.01L17.23 10.98L16.11 12.9L13.67 17.07L13.67 17.07L17.27 17.07C17.72 17.07 18.28 17.31 18.51 17.7L18.53 17.75C18.73 18.09 18.85 18.32 18.85 18.67C18.84 18.78 18.82 18.89 18.78 18.99L18.77 18.99ZM23.63 19L21.94 19L21.94 19L23.18 21.11C23.31 21.33 23.35 21.6 23.29 21.85C23.23 22.1 23.07 22.32 22.85 22.45C22.7 22.55 22.53 22.6 22.35 22.6C22.18 22.6 22.01 22.55 21.87 22.47C21.72 22.39 21.59 22.27 21.51 22.12L19.68 19L18.54 17.07L17.07 14.56C16.86 14.2 16.74 13.79 16.74 13.38C16.73 12.96 16.83 12.55 17.03 12.18C17.32 11.67 17.54 11.54 17.54 11.54L20.81 17.06L23.61 17.06C24.14 17.06 24.59 17.46 24.61 17.98C24.62 18.11 24.6 18.24 24.55 18.37C24.5 18.49 24.43 18.6 24.34 18.7C24.25 18.79 24.14 18.87 24.02 18.92C23.9 18.97 23.77 19 23.63 19L23.63 19Z" fill="#FFFFFF" fill-opacity="1.000000" fill-rule="nonzero"/>
	</g>
</svg>
